<svg xmlns="http://www.w3.org/2000/svg" width="1280" height="720" viewBox="0 0 1280 720"><defs><linearGradient id="bg" x1="0" y1="0" x2="1" y2="1"><stop offset="0" stop-color="#f8f4ec"/><stop offset="1" stop-color="#e9e0d0"/></linearGradient><filter id="shadow" x="-20%" y="-20%" width="140%" height="140%"><feDropShadow dx="0" dy="26" stdDeviation="36" flood-color="#000" flood-opacity="0.18"/></filter></defs><rect width="1280" height="720" fill="url(#bg)"/><circle cx="170" cy="100" r="180" fill="#fff" opacity="0.55"/><circle cx="1100" cy="120" r="180" fill="#d3c7ae" opacity="0.55"/><rect x="74" y="64" width="1132" height="592" rx="42" fill="rgba(255,255,255,0.72)" stroke="rgba(0,0,0,0.12)" filter="url(#shadow)"/><rect x="124" y="114" width="46" height="46" rx="16" fill="#111"/><text x="147" y="145" text-anchor="middle" font-family="Arial" font-size="20" font-weight="700" fill="#fff">T</text><text x="188" y="145" font-family="Arial" font-size="24" font-weight="800" fill="#151515">TrustCode</text><text x="124" y="260" font-family="Arial" font-size="72" font-weight="800" fill="#151515">One-time trust</text><text x="124" y="338" font-family="Arial" font-size="72" font-weight="800" fill="#151515">starts with a secret.</text><text x="128" y="398" font-family="Arial" font-size="24" fill="#6f6a60">Local TOTP toolkit · encrypted vault · QR export · PWA · extension</text><rect x="126" y="452" width="130" height="40" rx="20" fill="#fff" stroke="rgba(0,0,0,0.12)"/><text x="191" y="478" text-anchor="middle" font-family="Arial" font-size="16" fill="#6f6a60">Local-first</text><rect x="268" y="452" width="160" height="40" rx="20" fill="#fff" stroke="rgba(0,0,0,0.12)"/><text x="348" y="478" text-anchor="middle" font-family="Arial" font-size="16" fill="#6f6a60">Encrypted vault</text><rect x="770" y="120" width="360" height="170" rx="28" fill="#111"/><text x="804" y="160" font-family="Arial" font-size="16" fill="rgba(255,255,255,0.62)">Generated secret</text><text x="804" y="215" font-family="Courier New" font-size="24" fill="#fff">JBSWY3DPEHPK3PXP...</text><rect x="770" y="312" width="164" height="48" rx="24" fill="#111"/><text x="852" y="343" text-anchor="middle" font-family="Arial" font-size="16" fill="#fff">Generate</text><rect x="946" y="312" width="134" height="48" rx="24" fill="#fff" stroke="rgba(0,0,0,0.12)"/><text x="1013" y="343" text-anchor="middle" font-family="Arial" font-size="16" fill="#151515">Copy</text><rect x="770" y="386" width="360" height="188" rx="28" fill="#fff" stroke="rgba(0,0,0,0.12)"/><rect x="810" y="426" width="108" height="108" fill="#111" opacity="0.95"/><rect x="830" y="446" width="68" height="68" fill="#fff"/><rect x="846" y="462" width="36" height="36" fill="#111"/><text x="950" y="452" font-family="Arial" font-size="16" fill="#6f6a60">QR import</text><text x="950" y="486" font-family="Courier New" font-size="14" fill="#6f6a60">otpauth://totp/...</text></svg>